<?xml version="1.0" encoding="UTF-8"?>
<!-- (c) Carrd Inc. All rights reserved. All logos and trademarks are property of their respective owners. -->
<svg xmlns="http://www.w3.org/2000/svg" version="1.1" xmlns:xlink="http://www.w3.org/1999/xlink" viewBox="0 0 40 40" display="none" width="0" height="0">
	<symbol id="linkedin" viewBox="0 0 40 40"><path d="M12.1,13.8v19.1H5.7V13.8C5.7,13.8,12.1,13.8,12.1,13.8z M12.5,7.9c0,0.9-0.3,1.7-1,2.4c-0.7,0.6-1.5,0.9-2.6,0.9h0 c-1.1,0-1.9-0.3-2.5-0.9c-0.6-0.6-1-1.4-1-2.4c0-1,0.3-1.7,1-2.4S7.9,4.6,9,4.6s1.9,0.3,2.6,0.9S12.5,6.9,12.5,7.9z M35,22v11h-6.4 V22.7c0-1.4-0.3-2.4-0.8-3.2c-0.5-0.8-1.3-1.1-2.4-1.1c-0.8,0-1.5,0.2-2,0.7c-0.5,0.4-1,1-1.2,1.7c-0.1,0.4-0.2,0.9-0.2,1.6v10.7 h-6.4c0-5.1,0-9.3,0-12.5s0-5.1,0-5.7l0-0.9H22v2.8h0c0.3-0.4,0.5-0.8,0.8-1.1c0.3-0.3,0.6-0.6,1.1-1c0.5-0.4,1-0.6,1.7-0.8 c0.7-0.2,1.4-0.3,2.2-0.3c2.2,0,4,0.7,5.3,2.2C34.4,17,35,19.1,35,22L35,22z"/></symbol>
	<symbol id="pdf" viewBox="0 0 40 40"><path d="M32.4,34.7c-0.3,0.3-0.7,0.5-1.1,0.5H9.1c-0.4,0-0.8-0.2-1.1-0.5c-0.3-0.3-0.5-0.7-0.5-1.1V6.4 C7.5,6,7.7,5.6,8,5.3C8.3,5,8.7,4.8,9.1,4.8h13.3l-0.1,9.3c0,0.4,0.2,0.8,0.5,1.1c0.3,0.3,0.7,0.5,1.1,0.5h9v17.9 C32.9,34,32.7,34.4,32.4,34.7z M16,23c-0.2-0.3-0.4-0.5-0.6-0.7c-0.3-0.2-0.6-0.3-0.9-0.4c-0.3-0.1-0.7-0.1-1.1-0.1h-2.6v7.1h1.9 v-2.2h0.8c0.4,0,0.7,0,1.1-0.1c0.3-0.1,0.6-0.2,0.9-0.4c0.3-0.2,0.5-0.5,0.6-0.8c0.2-0.3,0.2-0.7,0.2-1.1C16.2,23.7,16.1,23.3,16,23 z M23.4,23.7c-0.2-0.4-0.4-0.8-0.7-1.1c-0.3-0.3-0.7-0.5-1.2-0.6c-0.4-0.1-0.9-0.2-1.5-0.2h-2.1v7.1h2.2c0.5,0,1-0.1,1.4-0.2 c0.4-0.1,0.8-0.4,1.1-0.6c0.3-0.3,0.6-0.7,0.7-1.1c0.2-0.5,0.3-1,0.3-1.6C23.6,24.7,23.6,24.1,23.4,23.7z M30.1,21.8h-4.6v7.1h1.9 v-2.6h2.4v-1.6h-2.4v-1.4h2.7V21.8z M21.2,27c-0.2,0.2-0.4,0.3-0.6,0.3c-0.2,0.1-0.5,0.1-0.7,0.1h-0.1v-4.1h0.1c0.3,0,0.5,0,0.7,0.1 c0.2,0.1,0.4,0.2,0.6,0.3c0.2,0.1,0.3,0.3,0.4,0.6c0.1,0.3,0.1,0.6,0.1,1c0,0.4,0,0.8-0.1,1C21.5,26.6,21.4,26.8,21.2,27z M14.1,24.9c-0.2,0.2-0.5,0.3-0.8,0.3h-0.7v-1.9h0.6c0.4,0,0.6,0.1,0.8,0.2c0.2,0.1,0.3,0.4,0.3,0.7C14.4,24.5,14.3,24.7,14.1,24.9z M24.5,5.5c0.2,0.2,0.4,0.3,0.6,0.5l6.8,6.9c0.2,0.2,0.3,0.4,0.5,0.6l-7.9-0.1V5.5z"/></symbol>
	<symbol id="email" viewBox="0 0 40 40"><path d="M37.3,15.3v15.3c0,0.8-0.3,1.6-0.9,2.2c-0.6,0.6-1.4,0.9-2.2,0.9H5.8c-0.8,0-1.6-0.3-2.2-0.9s-0.9-1.4-0.9-2.2V15.3 c0.5,0.6,1.2,1.1,2,1.7c4.7,3.1,7.9,5.4,9.6,6.7c0.7,0.5,1.4,0.9,1.8,1.2c0.4,0.3,1,0.6,1.9,0.9c0.7,0.3,1.5,0.5,2.1,0.5l0,0 c0.6,0,1.4-0.2,2.1-0.5c0.7-0.3,1.4-0.6,1.9-0.9c0.4-0.3,1-0.7,1.8-1.2c2.2-1.6,5.4-3.8,9.6-6.7C36.1,16.5,36.7,15.9,37.3,15.3 L37.3,15.3z M37.3,9.6c0,1-0.3,2-0.9,2.9c-0.6,0.9-1.5,1.8-2.4,2.4c-4.9,3.3-7.9,5.4-9,6.2c-0.1,0.1-0.4,0.3-0.8,0.6 c-0.4,0.3-0.7,0.5-1,0.7c-0.3,0.2-0.6,0.4-1,0.6c-0.4,0.2-0.7,0.4-1.1,0.5c-0.4,0.1-0.6,0.2-0.9,0.2l0,0c-0.3,0-0.6-0.1-0.9-0.2 c-0.3-0.1-0.7-0.3-1.1-0.5c-0.4-0.2-0.7-0.4-1-0.6c-0.3-0.2-0.6-0.4-1-0.7c-0.4-0.3-0.7-0.5-0.8-0.6c-1.1-0.8-2.8-2-5.1-3.5 c-2.3-1.6-3.3-2.4-3.7-2.7c-0.8-0.5-1.6-1.2-2.3-2.2s-1-1.9-1-2.6c0-1,0.3-1.9,0.8-2.5c0.5-0.6,1.2-1,2.3-1h28.4 c0.8,0,1.6,0.3,2.2,0.9C37.1,8.1,37.3,8.8,37.3,9.6L37.3,9.6z"/></symbol>
	<symbol id="calendar" viewBox="0 0 40 40"><path d="M32.4,32.6h-5.1v-5.1h5.1V32.6z M26.2,32.6h-5.7v-5.1h5.7V32.6z M32.4,26.3h-5.1v-5.7h5.1V26.3z M26.2,26.3h-5.7v-5.7h5.7 V26.3z M32.4,19.6h-5.1v-5.1h5.1V19.6z M19.4,32.6h-5.7v-5.1h5.7V32.6z M26.2,19.6h-5.7v-5.1h5.7V19.6z M12.6,32.6H7.6v-5.1h5.1 V32.6z M19.4,26.3h-5.7v-5.7h5.7V26.3z M25.7,11.1V6c0-0.2,0.1-0.3,0.2-0.4c0.1-0.1,0.2-0.2,0.4-0.2h1.1c0.2,0,0.3,0.1,0.4,0.2 c0.1,0.1,0.2,0.2,0.2,0.4v5.1c0,0.2-0.1,0.3-0.2,0.4c-0.1,0.1-0.2,0.2-0.4,0.2h-1.1c-0.2,0-0.3-0.1-0.4-0.2 C25.7,11.4,25.7,11.2,25.7,11.1z M12.6,26.3H7.6v-5.7h5.1V26.3z M19.4,19.6h-5.7v-5.1h5.7V19.6z M12.6,19.6H7.6v-5.1h5.1V19.6z M12.1,11.1V6c0-0.2,0.1-0.3,0.2-0.4c0.1-0.1,0.2-0.2,0.4-0.2h1.1c0.2,0,0.3,0.1,0.4,0.2c0.1,0.1,0.2,0.2,0.2,0.4v5.1 c0,0.2-0.1,0.3-0.2,0.4c-0.1,0.1-0.2,0.2-0.4,0.2h-1.1c-0.2,0-0.3-0.1-0.4-0.2C12.1,11.4,12.1,11.2,12.1,11.1z M5.3,9.9v22.6 c0,0.6,0.2,1.1,0.7,1.6c0.4,0.4,1,0.7,1.6,0.7h24.9c0.6,0,1.1-0.2,1.6-0.7c0.4-0.4,0.7-1,0.7-1.6V9.9c0-0.6-0.2-1.1-0.7-1.6 c-0.4-0.4-1-0.7-1.6-0.7h-2.3V6c0-0.8-0.3-1.4-0.8-2s-1.2-0.8-2-0.8h-1.1c-0.8,0-1.4,0.3-2,0.8c-0.6,0.6-0.8,1.2-0.8,2v1.7h-6.8V6 c0-0.8-0.3-1.4-0.8-2s-1.2-0.8-2-0.8h-1.1c-0.8,0-1.4,0.3-2,0.8c-0.6,0.6-0.8,1.2-0.8,2v1.7H7.6C6.9,7.7,6.4,7.9,6,8.3 C5.5,8.8,5.3,9.3,5.3,9.9z" /></symbol>
	<symbol id="cart" viewBox="0 0 40 40"><path d="M13,32.1c-0.5-0.5-1.1-0.7-1.9-0.7s-1.4,0.2-1.9,0.7c-0.5,0.5-0.7,1.1-0.7,1.9c0,0.7,0.2,1.4,0.7,1.9 c0.5,0.5,1.1,0.7,1.9,0.7s1.4-0.2,1.9-0.7c0.5-0.5,0.7-1.1,0.7-1.9S13.5,32.6,13,32.1z M31.2,32.1c-0.5-0.5-1-0.7-1.8-0.7 s-1.4,0.2-1.9,0.7c-0.5,0.5-0.7,1.1-0.7,1.9c0,0.7,0.2,1.4,0.7,1.9s1.1,0.7,1.9,0.7s1.4-0.2,1.9-0.7c0.5-0.5,0.7-1.1,0.7-1.9 S31.7,32.6,31.2,32.1z M34.2,9.8c-0.2-0.2-0.5-0.4-0.9-0.4H8.9c0-0.1,0-0.3-0.1-0.5c0-0.3-0.1-0.5-0.1-0.6c0-0.1-0.1-0.3-0.2-0.5 c0-0.2-0.1-0.4-0.2-0.5C8.1,7.1,8,7,7.8,6.9C7.6,6.8,7.4,6.8,7.2,6.8H2c-0.3,0-0.6,0.1-0.9,0.4C0.7,7.6,0.7,7.8,0.7,8.1 c0,0.3,0.1,0.6,0.4,0.9s0.5,0.4,0.9,0.4h4.2l3.5,17.8c0,0.1-0.1,0.3-0.3,0.6c-0.2,0.3-0.3,0.6-0.4,0.8c-0.1,0.2-0.2,0.4-0.3,0.7 c-0.1,0.3-0.2,0.5-0.2,0.6c0,0.3,0.1,0.6,0.4,0.9c0.2,0.2,0.5,0.4,0.9,0.4h20.9c0.3,0,0.6-0.1,0.9-0.4c0.2-0.2,0.4-0.5,0.4-0.9 c0-0.4-0.1-0.6-0.4-0.9c-0.2-0.2-0.5-0.4-0.9-0.4H12.1c0.3-0.6,0.5-1,0.5-1.4c0-0.1-0.1-0.6-0.3-1.5l21.3-2.5c0.3,0,0.6-0.2,0.8-0.4 c0.2-0.2,0.3-0.5,0.3-0.8V10.7C34.7,10.4,34.5,10.1,34.2,9.8z" /></symbol>
	<symbol id="shape-hexagon" viewBox="0 0 40 40"><path d="M4.9,11.7v17.5L20,37.9l15.2-8.8V11.7L20,2.9L4.9,11.7z"/></symbol>
</svg>
